<?xml version="1.0" standalone="no"?>
<!DOCTYPE svg PUBLIC "-//W3C//DTD SVG 1.1//EN" "http://www.w3.org/Graphics/SVG/1.1/DTD/svg11.dtd" >
<svg>
<metadata>
Created by FontForge 20090914 at Thu Feb  9 16:36:32 2017
 By www-data
&#194;&#169;1988 KaiBuskirk.com
</metadata>
<defs>
<font id="AbeatbyKai" horiz-adv-x="561" >
  <font-face 
    font-family="abeatbyKai"
    font-weight="400"
    font-stretch="normal"
    units-per-em="1000"
    panose-1="0 0 4 0 0 0 0 0 0 0"
    ascent="800"
    descent="-200"
    x-height="589"
    cap-height="789"
    bbox="-17 -200.214 4624 800.018"
    underline-thickness="20"
    underline-position="-123"
    unicode-range="U+0020-U+2122"
  />
<missing-glyph horiz-adv-x="500" 
d="M63 0v800h375v-800h-375zM125 63h250v675h-250v-675z" />
    <glyph glyph-name=".notdef" horiz-adv-x="500" 
d="M63 0v800h375v-800h-375zM125 63h250v675h-250v-675z" />
    <glyph glyph-name="space" unicode=" " horiz-adv-x="500" 
 />
    <glyph glyph-name="exclam" unicode="!" horiz-adv-x="162" 
d="M78 187h-77v603h77v-603zM78 19h-77v95h77v-95z" />
    <glyph glyph-name="quotedbl" unicode="&#x22;" horiz-adv-x="256" 
d="M169 554h-57v236h57v-236zM55 554h-55v236h55v-236z" />
    <glyph glyph-name="numbersign" unicode="#" horiz-adv-x="646" 
d="M593 513l-19 -67h-163l-40 -131h164l-19 -66h-163l-73 -240h-45l71 240h-98l-72 -240h-45l71 240h-162l19 65h161l38 132h-162l18 67h164l83 285h46l-82 -285h96l84 285h45l-80 -285h163zM364 446h-99l-41 -131h100z" />
    <glyph glyph-name="dollar" unicode="$" horiz-adv-x="487" 
d="M422 230c-2.66699 -55.333 -19.501 -100.334 -50.501 -135.001s-68.833 -53.334 -113.5 -56.001l-14 -1v-29h-67v29c-30.667 2.66699 -58.667 11.667 -84 27c-29.333 17.333 -52.166 40.666 -68.499 69.999s-24.5 58.666 -24.5 87.999v16h73v-13
c0 -34.667 14.333 -64.167 43 -88.5s60 -37.166 94 -38.499c36.667 -1.33301 68.667 11.5 96 38.5s41 59.167 41 96.5c0.666992 64.667 -37.666 110.334 -114.999 137.001l-76 26c-42.667 14 -75.667 37.167 -99 69.5s-35 69.5 -35 111.5
c0.666992 44.667 15.167 83.834 43.5 117.501s65.166 54.5 110.499 62.5v40h68v-40c41.333 -4.66699 77 -21 107 -49c16.667 -14.667 31 -34 43 -58c10.667 -21.333 16 -38.333 16 -51l1 -34h-71l-5 33c-4 28.667 -18 51.167 -42 67.5s-51.667 24.5 -83 24.5
c-32 0 -58.667 -11.667 -80 -35s-32.333 -51 -33 -83c-2 -57.333 28.667 -95.666 92 -114.999l97 -30c42 -13.333 76 -40.333 102 -81c24 -38 35.333 -77 34 -117z" />
    <glyph glyph-name="percent" unicode="%" horiz-adv-x="818" 
d="M363 619c0 -50 -17.335 -92.834 -52.002 -128.501s-76.667 -54.167 -126 -55.5c-50.667 -0.666992 -94.334 17.5 -131.001 54.5s-54.667 81.167 -54 132.5c0.666992 49.333 19.334 91.5 56.001 126.5s79.667 52.167 129 51.5
c48.667 -0.666992 90.334 -18.667 125.001 -54s52.334 -77.666 53.001 -126.999zM590.998 797.999l-343 -791h-76l345 791h74zM766.998 191.999c0.666992 -49.333 -16.501 -92 -51.501 -128s-77.167 -54.333 -126.5 -55c-50.667 -1.33301 -94.167 16.5 -130.5 53.5
s-54.166 80.833 -53.499 131.5c1.33301 50 20 92.5 56 127.5s78.667 51.833 128 50.5c48.667 -0.666992 90.5 -18.5 125.5 -53.5s52.5 -77.167 52.5 -126.5zM287.997 622.999c-1.33301 28 -12 51.832 -32 71.499s-44.333 29.5 -73 29.5c-29.333 0.666992 -54.333 -9 -75 -29
s-31.667 -44.333 -33 -73c-0.666992 -30.667 9.66602 -57.167 30.999 -79.5s47 -33.166 77 -32.499c30 0 55.333 11.333 76 34s30.334 49 29.001 79zM692.997 194.998c-1.33301 28.667 -12.002 52.8301 -32.002 72.4971s-44.333 29.834 -73 30.501
s-53.5 -9.16602 -74.5 -29.499s-32.167 -45.166 -33.5 -74.499c-1.33301 -30 8.83398 -56.333 30.501 -79s47.5 -33.667 77.5 -33s55.333 12.167 76 34.5s30.334 48.5 29.001 78.5z" />
    <glyph glyph-name="ampersand" unicode="&#x26;" horiz-adv-x="754" 
d="M699 63l-50.999 -51.999l-176 169l-22 -39c-50 -88 -120.667 -132 -212 -132c-63.333 0 -118.833 23.167 -166.5 69.5s-71.5 101.5 -71.5 165.5c0 22 3.33301 44 10 66c5.33301 18 19.666 40.667 42.999 68c26 30 53.333 54.333 82 73l36 22l-23 26
c-39.333 43.333 -58 88 -56 134c2 47.333 20.833 87 56.5 119s77.5 47.667 125.5 47c49.333 -1.33301 92.833 -19.333 130.5 -54s55.5 -76.334 53.5 -125.001c-2.66699 -69.333 -40.667 -122 -114 -158l-36 -17l144 -141l111 216h85l-139 -270zM380.001 629.001
c0 27.333 -10.499 50.333 -31.499 69s-45.833 28 -74.5 28c-28 0 -52.833 -10 -74.5 -30s-32.834 -42.333 -33.501 -67c0 -29.333 16.667 -60 50 -92l38 -35l69 35c38.667 20 57.667 50.667 57 92zM415.002 236.001l-184 176.001l-57 -29
c-63.333 -32.667 -95 -81.334 -95 -146.001c0 -42 14.833 -78.167 44.5 -108.5s66.5 -45.5 110.5 -45.5c64 0 112 29 144 87z" />
    <glyph glyph-name="quotesingle" unicode="'" horiz-adv-x="153" 
d="M65 555h-66v235h66v-235z" />
    <glyph glyph-name="parenleft" unicode="(" horiz-adv-x="268" 
d="M204 -94l-38 12.999c-12 4 -30 15 -54 33c-28 22 -49.667 44 -65 66c-31.333 46 -47 97 -47 153v357c0 64 19 120.667 57 170c32 41.333 69 70.333 111 87l36 15v-79l-19 -9c-31.333 -15.333 -57.333 -38.666 -78 -69.999c-22 -34 -33 -75.333 -33 -124v-348
c0 -30 10.667 -65.667 32 -107c13.333 -26 34 -46 62 -60l36 -17v-80z" />
    <glyph glyph-name="parenright" unicode=")" horiz-adv-x="284" 
d="M204 171c0 -56 -15.667 -107.001 -47 -153.001c-15.333 -22 -37 -44 -65 -66c-23.333 -18 -41.333 -29 -54 -33l-38 -13v80l36 17c28.667 14 49.667 34 63 60c20.667 40.667 31 76.334 31 107.001v348c0 48.667 -11.333 90 -34 124c-20 30 -46 53.333 -78 70l-18 9v79
l37 -15c42 -16.667 78.667 -45.667 110 -87c38 -50 57 -106.667 57 -170v-357z" />
    <glyph glyph-name="asterisk" unicode="*" horiz-adv-x="381" 
d="M308 613h-104l55 -92l-48 -29l-56 93l-53 -93l-50 29l56 90h-108v56h107l-55 93l49 30l54 -95l56 95l48 -30l-55 -93h104v-54z" />
    <glyph glyph-name="plus" unicode="+" 
d="M514 363h-218v-227h-77v227h-219v79h219v223h77v-223h218v-79z" />
    <glyph glyph-name="comma" unicode="," horiz-adv-x="250" 
d="M173 148l-86 -202h-78l87 202h77z" />
    <glyph glyph-name="period" unicode="." horiz-adv-x="158" 
d="M76 9h-76v133h76v-133z" />
    <glyph glyph-name="slash" unicode="/" horiz-adv-x="449" 
d="M397 790l-325 -771h-72l324 771h73z" />
    <glyph glyph-name="zero" unicode="0" horiz-adv-x="882" 
d="M808 409c0 -111.333 -39.501 -206.667 -118.501 -286s-173.833 -119 -284.5 -119c-109.333 0 -204.166 38.167 -284.499 114.5s-120.5 168.5 -120.5 276.5c0 110.667 39.167 205.5 117.5 284.5s172.5 118.5 282.5 118.5c110.667 0 206 -37.333 286 -112
c81.333 -76.667 122 -169 122 -277zM732.999 403.999c-0.666992 89.333 -33.499 165 -98.499 227s-142.5 93 -232.5 93c-88.667 0 -164.834 -31.833 -228.501 -95.5s-95.5 -139.5 -95.5 -227.5s32 -163.667 96 -227s140.333 -95.333 229 -96
c90.667 -0.666992 168.667 31 234 95s97.333 141 96 231z" />
    <glyph glyph-name="one" unicode="1" horiz-adv-x="301" 
d="M219 18h-76v592c0 26.667 -13 53 -39 79c-16.667 16.667 -44.667 26 -84 28l-20 1v68h20c58 0 105.667 -16.333 143 -49s56 -79.667 56 -141v-578z" />
    <glyph glyph-name="two" unicode="2" horiz-adv-x="553" 
d="M488 585c0.666992 -10.667 0.999023 -21 0.999023 -31c0 -64 -26.667 -122 -80 -174l-304 -291h372v-71h-477v72l352 338c44.667 43.333 65.334 90 62.001 140c-2.66699 44 -19.667 81 -51 111s-69 45.333 -113 46c-45.333 0 -84.833 -15.833 -118.5 -47.5
s-50.5 -69.834 -50.5 -114.501v-26h-76v26c0 66 24.5 122 73.5 168s106.5 68.667 172.5 68c62.667 -0.666992 116.167 -21.167 160.5 -61.5s69.833 -91.166 76.5 -152.499z" />
    <glyph glyph-name="three" unicode="3" horiz-adv-x="559" 
d="M487 255c2 -68 -21.6699 -126.834 -71.0029 -176.501s-108.333 -74.167 -177 -73.5c-66 1.33301 -122.333 25.833 -169 73.5s-70 104.5 -70 170.5v11h77v-15c0 -45.333 16.333 -84 49 -116s71.334 -48 116.001 -48c46.667 0 86.667 17.167 120 51.5s49 74.833 47 121.5
c-2 52.667 -21 94.334 -57 125.001c-34 28.667 -76.667 43 -128 43h-31v68l29 -2c38 -2.66699 70.833 7.5 98.5 30.5s40.834 54.5 39.501 94.5c-1.33301 30.667 -12 56.667 -32 78s-45 33 -75 35c-32.667 2 -61.5 -9 -86.5 -33s-37.5 -52.667 -37.5 -86v-12h-77v7
c0 54.667 19.333 101.5 58 140.5s84.667 58.167 138 57.5c52.667 -0.666992 97.834 -20 135.501 -58s55.5 -83 53.5 -135c-1.33301 -62 -28.333 -111 -81 -147c83.333 -42 127 -110.333 131 -205z" />
    <glyph glyph-name="four" unicode="4" horiz-adv-x="607" 
d="M534 159h-68v-141h-80v141h-386v70l370 557h95v-557h69v-70zM386 229v449l-295 -449h295z" />
    <glyph glyph-name="five" unicode="5" horiz-adv-x="584" 
d="M522 278c1.33301 -72 -21.6689 -134.67 -69.002 -188.003s-106 -82 -176 -86c-73.333 -4.66699 -137.5 18.666 -192.5 69.999s-83.167 113.666 -84.5 186.999h75c0 -47.333 18.5 -89.666 55.5 -126.999s80.5 -55.666 130.5 -54.999c50.667 0 93.834 19.333 129.501 58
s53.5 84.334 53.5 137.001c0 53.333 -18.833 99.5 -56.5 138.5s-82.5 57.167 -134.5 54.5c-31.333 -2 -61.666 -11.333 -90.999 -28c-26.667 -15.333 -47 -32.666 -61 -51.999l-60 22l68 378h347v-69h-285l-39 -213c40.667 24.667 85.667 37 135 37
c70.667 0 130.667 -26.167 180 -78.5s74.333 -114.166 75 -185.499z" />
    <glyph glyph-name="six" unicode="6" horiz-adv-x="661" 
d="M287 8c-76.667 0 -142.667 26 -198 78c-59.333 56.667 -89 127 -89 211c0 83.333 30 155 90 215l274 274h105l-190 -190c84.667 5.33301 157.167 -20 217.5 -76s90.5 -126 90.5 -210s-29.5 -155.333 -88.5 -214s-129.5 -88 -211.5 -88zM449 154
c42 43.333 62.999 95.333 62.999 156s-21 112 -63 154c-40.667 40 -90 60 -148 60c-60 0 -112.333 -21 -157 -63c-46.667 -45.333 -70 -100.666 -70 -165.999c0 -62.667 22.333 -114.334 67 -155.001c40 -36.667 88 -55 144 -55c64.667 0 119.334 23 164.001 69z" />
    <glyph glyph-name="seven" unicode="7" horiz-adv-x="499" 
d="M442 713l-121 -267h22v-72h-56l-162 -357h-82l162 357h-119v72h153l121 267h-360v71h442v-71z" />
    <glyph glyph-name="eight" unicode="8" 
d="M488 245c2.66699 -67.333 -22.668 -125.169 -76.001 -173.502s-114.666 -70.166 -183.999 -65.499c-64 4 -118.333 28.667 -163 74s-66.334 99.333 -65.001 162c2 96 45 164.667 129 206c-59.333 39.333 -88 92.333 -86 159c2 54 22.833 99.833 62.5 137.5
s86.5 56.167 140.5 55.5c56 -0.666992 104.333 -21 145 -61s59.334 -86 56.001 -138c-2 -43.333 -10 -76 -24 -98c-11.333 -17.333 -33 -36 -65 -56c82.667 -41.333 126 -108.666 130 -201.999zM371.998 605.997c-0.666992 32.667 -12.8311 60.5 -36.498 83.5
s-52.5 35.167 -86.5 36.5c-34.667 0.666992 -65 -10.666 -91 -33.999s-39.333 -52.333 -40 -87s11.666 -64.334 36.999 -89.001s55.333 -37 90 -37s64.667 12.5 90 37.5s37.666 54.833 36.999 89.5zM410.001 244.997c-0.666992 45.333 -17.833 83.833 -51.5 115.5
s-73.167 47.167 -118.5 46.5c-45.333 -1.33301 -83.833 -18 -115.5 -50s-47.5 -70.667 -47.5 -116c0.666992 -44 16.334 -81.667 47.001 -113s68.667 -47.666 114 -48.999c46.667 -1.33301 87.167 14.667 121.5 48s51.166 72.666 50.499 117.999z" />
    <glyph glyph-name="nine" unicode="9" horiz-adv-x="651" 
d="M500 292l-275 -275.001h-105l191 191c-84.667 -6 -157.667 19.667 -219 77c-59.333 55.333 -89 125 -89 209s29.333 155.167 88 213.5s129 87.5 211 87.5c76.667 0 142.667 -26 198 -78c60 -56 90 -126.333 90 -211c0 -83.333 -30 -154.666 -90 -213.999zM448 663.999
c-40 36.667 -87.999 55 -143.999 55c-64.667 0 -119.334 -23.333 -164.001 -70c-42 -43.333 -63 -95 -63 -155c0 -60.667 21.333 -112 64 -154c40 -40 89 -60 147 -60c60.667 0 113 21 157 63c46.667 44.667 70 99.667 70 165c0 62.667 -22.333 114.667 -67 156z" />
    <glyph glyph-name="colon" unicode=":" horiz-adv-x="158" 
d="M77 533h-77v131h77v-131zM77 132h-77v131h77v-131z" />
    <glyph glyph-name="semicolon" unicode=";" horiz-adv-x="228" 
d="M164 420h-77v131h77v-131zM164 150l-87 -202h-77l87 202h77z" />
    <glyph glyph-name="equal" unicode="=" horiz-adv-x="573" 
d="M525 465h-525v79h525v-79zM525 263h-525v79h525v-79z" />
    <glyph glyph-name="question" unicode="?" 
d="M501 558c0 -58.667 -23 -111.003 -69 -157.003l-56 -58c-48 -48.667 -74 -100.667 -78 -156h-83l4 33c3.33301 30.667 12.666 59.667 27.999 87c14 24.667 45.667 61.667 95 111l36 36c28 28 42.333 63.667 43 107c0 44 -16.667 81.333 -50 112
s-72.666 46.667 -117.999 48c-48 0.666992 -89.167 -16.166 -123.5 -50.499s-51.5 -75.5 -51.5 -123.5v-15h-78v18c0 68.667 25 127.334 75 176.001s109.667 73.334 179 74.001c68 0.666992 126.167 -22.5 174.5 -69.5s72.5 -104.5 72.5 -172.5zM297 18.9971h-81v95h81v-95z
" />
    <glyph glyph-name="at" unicode="@" horiz-adv-x="509" 
d="M430 457c0 -45.333 -14.499 -85.8311 -43.499 -121.498s-62.833 -53.5 -101.5 -53.5c-8 0.666992 -15 2.66699 -21 6c-14 8.66699 -22 23.334 -24 44.001l-18 -21c-16 -17.333 -35.333 -26 -58 -26c-24 -0.666992 -43.667 8.66602 -59 27.999s-23 41.666 -23 66.999
c0 37.333 15.667 70 47 98c28.667 25.333 58 38 88 38c24.667 0 40.334 -9.33301 47.001 -28l6 -17l12 38l53 1l-48 -174c-6.66699 -24.667 -3.33398 -37 9.99902 -37c24.667 0 47.667 16.5 69 49.5s32 67.5 32 103.5c0 46.667 -18.333 84 -55 112
c-33.333 25.333 -74 38 -122 38c-52 0 -96.333 -18.333 -133 -55s-55 -81 -55 -133c0 -53.333 18.667 -99.333 56 -138s82.666 -58 135.999 -58c26 1.33301 49.333 5 70 11c49.333 14.667 80.333 40 93 76h40c-28.667 -72.667 -96.667 -112 -204 -118
c-62 0 -114.833 22 -158.5 66s-65.5 97 -65.5 159c0 61.333 21.5 113.666 64.5 156.999s95.167 65 156.5 65c55.333 0 103.333 -16.333 144 -49c43.333 -34 65 -76.667 65 -128zM259.001 447.002c0 35.333 -12 52.999 -36 52.999c-20 0 -39.5 -16.667 -58.5 -50
s-28.5 -65.666 -28.5 -96.999c0 -34 14 -51 42 -51c20 0 39 18.333 57 55c16 33.333 24 63.333 24 90z" />
    <glyph glyph-name="A" unicode="A" horiz-adv-x="833" 
d="M781 19h-85l-109 260h-357l-108 -260h-98l344 770h86zM560 348l-147 352l-150 -352h297z" />
    <glyph glyph-name="B" unicode="B" horiz-adv-x="557" 
d="M484 238c2 -61.333 -21.166 -113.168 -69.499 -155.501s-104.833 -63.5 -169.5 -63.5h-245v770h218c61.333 0 114.333 -18 159 -54c47.333 -38 71 -86 71 -144c0 -68.667 -29.333 -122 -88 -160c79.333 -37.333 120.666 -101.666 123.999 -192.999zM216.001 716.998
l-135.999 0.000976562v-257h140c40 0 75.167 11.833 105.5 35.5s45.5 54.167 45.5 91.5c0 41.333 -16 73.666 -48 96.999c-28.667 22 -64.334 33 -107.001 33zM405.002 244.999c-2.66699 48.667 -21.9971 85.667 -57.9971 111c-32.667 22.667 -76.334 34 -131.001 34h-136
v-298h140c59.333 0 105.666 14 138.999 42s48.666 65 45.999 111z" />
    <glyph glyph-name="C" unicode="C" horiz-adv-x="757" 
d="M745 217c-35.333 -66.667 -83.167 -118.498 -143.5 -155.498s-128.833 -56.167 -205.5 -57.5c-108.667 -1.33301 -201.834 37.667 -279.501 117s-116.5 174 -116.5 284c0 113.333 39 207.666 117 282.999c76 74.667 169 111.667 279 111
c76.667 -0.666992 146.334 -20.334 209.001 -59.001c60 -38 106.667 -89 140 -153h-87c-64 92.667 -153.333 138.334 -268 137.001c-85.333 0 -158.833 -30.833 -220.5 -92.5s-93.5 -135.834 -95.5 -222.501c-2 -90 28.833 -167.833 92.5 -233.5s140.167 -98.5 229.5 -98.5
c52 0 102.667 13.667 152 41c47.333 26 84.333 59 111 99h86z" />
    <glyph glyph-name="D" unicode="D" horiz-adv-x="714" 
d="M645 403c0 -105.333 -37.832 -195.667 -113.499 -271s-165.834 -113 -270.501 -113h-261v769h223c122.667 0 223.667 -36.667 303 -110s119 -165 119 -275zM567.001 413.999c-2 85.333 -35.667 157 -101 215s-142.333 87 -231 87h-161v-625h183
c87.333 0 161.5 32 222.5 96s90.167 139.667 87.5 227z" />
    <glyph glyph-name="E" unicode="E" horiz-adv-x="460" 
d="M420 19h-221c-58 0 -105.667 16.333 -143 49s-56 79.334 -56 140.001v391c0 60.667 18.667 107.334 56 140.001s85 49 143 49h221v-72h-221c-40 0 -68 -8 -84 -24c-25.333 -26.667 -38 -53.334 -38 -80.001v-166h257v-73h-257v-178c0 -26.667 12.667 -53.334 38 -80.001
c16 -16 44 -24 84 -24h221v-72z" />
    <glyph glyph-name="F" unicode="F" horiz-adv-x="450" 
d="M420 716h-221c-40 0 -68 -8 -84 -24c-25.333 -26.667 -38 -53.334 -38 -80.001v-166h257v-73h-257v-354h-77v580c0 60.667 18.667 107.334 56 140.001s85 49 143 49h221v-72z" />
    <glyph glyph-name="G" unicode="G" horiz-adv-x="850" 
d="M819 373c-12 -120 -63.998 -214.333 -155.998 -283c-76.667 -57.333 -160.334 -85.666 -251.001 -84.999c-111.333 0.666992 -208 40 -290 118s-122.667 171.667 -122 281c0.666992 112 40.167 206 118.5 282s174.5 114 288.5 114c83.333 0 153.333 -16 210 -48
c60.667 -34.667 112 -91.334 154 -170.001h-86c-68 98.667 -162 147.334 -282 146.001c-86.667 -0.666992 -162 -31.667 -226 -93c-66 -62.667 -100.333 -138.334 -103 -227.001c-2 -89.333 29.667 -165.333 95 -228c63.333 -61.333 142.666 -95 237.999 -101
c64.667 -4.66699 128.5 15.333 191.5 60s105.5 99.667 127.5 165l-431 1v69z" />
    <glyph glyph-name="H" unicode="H" horiz-adv-x="627" 
d="M541 19h-74v354h-392v-354h-75v769h75v-342h392v342h74v-769z" />
    <glyph glyph-name="I" unicode="I" horiz-adv-x="163" 
d="M77 19h-77v770h77v-770z" />
    <glyph glyph-name="J" unicode="J" horiz-adv-x="493" 
d="M409 193c0 -53.333 -20.334 -98.1689 -61.001 -134.502s-89 -54.5 -145 -54.5c-54 0 -100.833 19.167 -140.5 57.5s-60.5 84.5 -62.5 138.5h76c1.33301 -33.333 14.5 -61.166 39.5 -83.499s54.833 -34.5 89.5 -36.5c32.667 -2 61.834 8.33301 87.501 31
s38.5 50.334 38.5 83.001v595h78v-596z" />
    <glyph glyph-name="K" unicode="K" horiz-adv-x="586" 
d="M531 19h-93l-262 334l-99 -125v-209h-77v770h81v-438l352 438h98l-304 -375z" />
    <glyph glyph-name="L" unicode="L" horiz-adv-x="447" 
d="M421 19h-221c-58.667 0 -106.667 16.333 -144 49s-56 79.667 -56 141v580h77v-594c0 -26.667 12.667 -53 38 -79c16 -16 44.333 -24 85 -24h221v-73z" />
    <glyph glyph-name="M" unicode="M" horiz-adv-x="888" 
d="M803 19h-78v680l-293 -680h-65l-290 679l2 -679h-79v770h120l278 -664l287 664h118v-770z" />
    <glyph glyph-name="N" unicode="N" horiz-adv-x="693" 
d="M608 19h-86l-442 670v-670h-80v770h104l425 -646v646h79v-770z" />
    <glyph glyph-name="O" unicode="O" horiz-adv-x="883" 
d="M809 410c0 -111.333 -39.501 -206.832 -118.501 -286.499s-173.833 -119.5 -284.5 -119.5c-110 0 -205.167 38.333 -285.5 115s-120.5 169 -120.5 277c0 110.667 39.167 205.667 117.5 285s172.833 119 283.5 119s206.334 -37.833 287.001 -113.5
s121 -167.834 121 -276.501zM734.999 405.001c-1.33301 89.333 -34.499 165 -99.499 227s-142.5 93 -232.5 93c-88.667 0 -165 -31.667 -229 -95s-96 -139.333 -96 -228c0 -88 32 -163.667 96 -227s140.667 -95.333 230 -96c90.667 -0.666992 168.667 31 234 95
s97.666 141 96.999 231z" />
    <glyph glyph-name="P" unicode="P" horiz-adv-x="555" 
d="M511 547c-0.666992 -62.667 -24.668 -115.333 -72.001 -158s-103.333 -64 -168 -64h-191v-306h-80v769h247c76 0 139.333 -22.833 190 -68.5s75.334 -103.167 74.001 -172.5zM431.999 565.001c-2 44 -20.833 80.167 -56.5 108.5s-77.167 42.5 -124.5 42.5h-171v-321h176
c49.333 0 91 15.333 125 46c36.667 32 53.667 73.333 51 124z" />
    <glyph glyph-name="Q" unicode="Q" horiz-adv-x="869" 
d="M797 400c0 -112 -39.999 -207 -119.999 -285c13.333 -17.333 26.5 -29 39.5 -35s33.167 -9.66699 60.5 -11l20 -1v-68h-20c-68 0 -121.333 22 -160 66c-66.667 -43.333 -139.334 -65 -218.001 -65c-110 0 -204 39 -282 117s-117 172 -117 282s39 204 117 282
s172 117 282 117s203.833 -39 281.5 -117s116.5 -172 116.5 -282zM724.001 403c0 90 -31.833 166.833 -95.5 230.5s-140.5 95.5 -230.5 95.5s-166.833 -31.833 -230.5 -95.5s-95.5 -140.5 -95.5 -230.5s31.833 -166.667 95.5 -230s140.5 -95 230.5 -95
s166.833 31.667 230.5 95s95.5 140 95.5 230z" />
    <glyph glyph-name="R" unicode="R" horiz-adv-x="596" 
d="M524 537c-1.33301 -60 -21.666 -111.834 -60.999 -155.501s-88 -68.167 -146 -73.5l-22 -2l213 -287h-95l-260 348h75c67.333 0 120.666 17.333 159.999 52s57.666 78.334 54.999 131.001c-2 48 -19.333 87 -52 117c-35.333 32.667 -82 49 -140 49h-172v-697h-79v769h246
c85.333 0 153.333 -23.5 204 -70.5s75.334 -107.167 74.001 -180.5z" />
    <glyph glyph-name="S" unicode="S" horiz-adv-x="525" 
d="M461 232c0.666992 -62.667 -21.5 -116.167 -66.5 -160.5s-99.5 -66.5 -163.5 -66.5s-118.333 22 -163 66s-67.334 99 -68.001 165h81c-0.666992 -42 13.666 -78.333 42.999 -109s64.666 -46.334 105.999 -47.001c43.333 -0.666992 80.5 14 111.5 44
s45.833 66.667 44.5 110c-2 71.333 -49.333 121.333 -142 150l-82 25c-43.333 13.333 -77 36.5 -101 69.5s-36.333 72.5 -37 118.5c-0.666992 56.667 20.333 104.834 63 144.501s93 59.167 151 58.5c57.333 -0.666992 106 -21.5 146 -62.5s60 -90.167 60 -147.5h-81
c0.666992 36 -11.166 67 -35.499 93s-54.166 40 -89.499 42c-37.333 2 -70.166 -10.167 -98.499 -36.5s-41.833 -57.833 -40.5 -94.5c1.33301 -60 31 -99 89 -117l93 -29c118.667 -37.333 178.667 -109.333 180 -216z" />
    <glyph glyph-name="T" unicode="T" horiz-adv-x="479" 
d="M426 716h-175v-697h-77v697h-174v72h426v-72z" />
    <glyph glyph-name="U" unicode="U" horiz-adv-x="603" 
d="M521 269c0 -75.333 -25.833 -138.5 -77.5 -189.5s-114.167 -75.833 -187.5 -74.5c-72 0.666992 -132.667 26.5 -182 77.5s-74 114.167 -74 189.5v518h76v-504c0 -58 17.333 -106.833 52 -146.5s78.667 -59.5 132 -59.5c51.333 0 94.833 18.333 130.5 55s53.5 82 53.5 136
v519h77v-521z" />
    <glyph glyph-name="V" unicode="V" horiz-adv-x="761" 
d="M708 790l-316 -771h-76l-316 771h82l272 -676l273 676h81z" />
    <glyph glyph-name="W" unicode="W" horiz-adv-x="1040" 
d="M978 790l-218 -771h-106l-169 632l-163 -632h-106l-216 771h79l189 -668l182 668h71l188 -665l183 665h86z" />
    <glyph glyph-name="X" unicode="X" horiz-adv-x="679" 
d="M622 19h-90l-223 332l-219 -332h-90l260 395l-251 376h93l206 -308l201 308h88l-244 -375z" />
    <glyph glyph-name="Y" unicode="Y" horiz-adv-x="650" 
d="M601 790l-263 -512v-259h-78v260l-260 511h80l218 -434l218 434h85z" />
    <glyph glyph-name="Z" unicode="Z" horiz-adv-x="514" 
d="M463 19h-475v66l376 632h-364v73h449v-70l-371 -628h385v-73z" />
    <glyph glyph-name="backslash" unicode="\" horiz-adv-x="450" 
d="M397 19h-72l-325 771h73z" />
    <glyph glyph-name="underscore" unicode="_" horiz-adv-x="631" 
d="M676 -88h-676v64h676v-64z" />
    <glyph glyph-name="grave" unicode="`" horiz-adv-x="255" 
d="M164 588h-78l-86 202h76z" />
    <glyph glyph-name="a" unicode="a" horiz-adv-x="665" 
d="M585 305v-4.00195v-282h-74v89c-62 -70.667 -138 -104.667 -228 -102c-78.667 2.66699 -145.667 33 -201 91s-83 127 -83 207c0 83.333 29.667 154.833 89 214.5s130.333 87.834 213 84.501c80 -2.66699 148 -33.167 204 -91.5s82.667 -127.166 80 -206.499zM509 310.998
c-1.33301 60 -22.665 111.336 -63.998 154.003s-91 64 -149 64c-60.667 0 -112.334 -21.333 -155.001 -64s-64.334 -94.334 -65.001 -155.001c-1.33301 -60 18.5 -112.5 59.5 -157.5s90.5 -68.833 148.5 -71.5c62.667 -2.66699 116.167 19.166 160.5 65.499
s65.833 101.166 64.5 164.499z" />
    <glyph glyph-name="b" unicode="b" horiz-adv-x="651" 
d="M585 304c0 -80 -27.668 -149.001 -83.001 -207.001s-122.666 -88.333 -201.999 -91c-82 -2.66699 -153.333 26 -214 86s-90 131 -88 213v4v481h75v-288c56 64.667 126 98.334 210 101.001c82 3.33301 152.833 -25 212.5 -85s89.5 -131.333 89.5 -214zM507.999 309.999
c-1.33301 60 -23.1689 111.496 -65.502 154.496s-93.833 64.5 -154.5 64.5c-58 0 -107.667 -21.333 -149 -64s-62.666 -94 -63.999 -154c-2 -63.333 19.333 -118.166 64 -164.499s98 -68.166 160 -65.499c58.667 2.66699 108.334 26.334 149.001 71.001
s60.667 97.334 60 158.001z" />
    <glyph glyph-name="c" unicode="c" horiz-adv-x="631" 
d="M591 187l-7.99805 -16.999c-60 -110.667 -152.667 -165.334 -278 -164.001c-82.667 0.666992 -154 29.667 -214 87s-90.333 127 -91 209c-1.33301 82.667 28.167 153.5 88.5 212.5s132.5 89.167 216.5 90.5c60 0.666992 116 -15 168 -47
c49.333 -30.667 84.666 -69.334 105.999 -116.001l11 -25h-86c-42.667 73.333 -108 111 -196 113c-58.667 1.33301 -111.334 -20 -158.001 -64c-48.667 -45.333 -73 -99 -73 -161s22.667 -115.167 68 -159.5s99 -66.166 161 -65.499c88.667 1.33301 155 37 199 107h86z" />
    <glyph glyph-name="d" unicode="d" horiz-adv-x="678" 
d="M597 301c2 -82 -27.333 -152.833 -88 -212.5s-132 -88.167 -214 -85.5c-79.333 2 -146.5 32 -201.5 90s-82.5 127 -82.5 207c0 83.333 29.667 154.833 89 214.5s130 88.167 212 85.5c84 -3.33301 154 -37 210 -101v287h75v-485zM520 307
c-1.33301 60 -22.501 111.331 -63.501 153.998s-90.833 64 -149.5 64c-60 0.666992 -111.5 -20.5 -154.5 -63.5s-64.833 -94.833 -65.5 -155.5c-0.666992 -60 19.333 -112.5 60 -157.5s90.334 -68.5 149.001 -70.5c62.667 -3.33301 116.167 18.334 160.5 65.001
s65.5 101.334 63.5 164.001z" />
    <glyph glyph-name="e" unicode="e" horiz-adv-x="658" 
d="M590 278l-512 -0.00195312c6 -57.333 30.333 -104.666 73 -141.999s93 -55.666 151 -54.999c90 1.33301 154.333 43 193 125h81c-21.333 -61.333 -57.333 -110 -108 -146s-107 -54.333 -169 -55c-78 -1.33301 -147 27.167 -207 85.5s-90.667 127.833 -92 208.5
c-2 85.333 28.167 158.833 90.5 220.5s135.833 90.167 220.5 85.5c76 -4.66699 142 -36 198 -94c54 -57.333 81 -121.333 81 -192v-41zM515 347.998c-10.667 53.333 -35.667 96.499 -75 129.499s-86.333 49.833 -141 50.5s-102.5 -15.666 -143.5 -48.999
s-66.833 -77 -77.5 -131h437z" />
    <glyph glyph-name="f" unicode="f" horiz-adv-x="283" 
d="M220 519l-143 0.000976562v-500h-77v581c0 60.667 18.667 107.5 56 140.5s85.333 49.5 144 49.5h20v-68l-20 -1c-40 -2 -68.333 -11.333 -85 -28c-25.333 -26.667 -38 -53.334 -38 -80.001v-24h143v-70z" />
    <glyph glyph-name="g" unicode="g" horiz-adv-x="666" 
d="M586 309l0.000976562 -263.002c0 -72 -29.5 -131.667 -88.5 -179s-126.5 -69.666 -202.5 -66.999c-68 2.66699 -126.667 23.334 -176 62.001c-46.667 37.333 -78 85 -94 143h74c11.333 -39.333 36.666 -73.166 75.999 -101.499s82.333 -42.5 129 -42.5
c56 0.666992 104.5 20.167 145.5 58.5s61.5 84.166 61.5 137.499v54c-56 -64 -126 -97.667 -210 -101c-82 -2.66699 -152.667 25.833 -212 85.5s-89 131.167 -89 214.5c0 80 27.5 149 82.5 207s122.167 88.333 201.5 91c82 2 153.167 -26.833 213.5 -86.5
s89.833 -130.5 88.5 -212.5zM509.001 302.998c2 62.667 -19.166 117.334 -63.499 164.001s-97.833 68.667 -160.5 66c-58.667 -2.66699 -108.334 -26.5 -149.001 -71.5s-60.667 -97.5 -60 -157.5c1.33301 -60.667 23.333 -112.334 66 -155.001s94 -64 154 -64
c58.667 0 108.5 21.333 149.5 64s62.167 94 63.5 154z" />
    <glyph glyph-name="h" unicode="h" horiz-adv-x="575" 
d="M502 19l-76.001 0.00195312v332c0 48 -17.667 89.5 -53 124.5s-76.666 51.833 -123.999 50.5c-48 -0.666992 -88.5 -16.834 -121.5 -48.501s-49.5 -71.834 -49.5 -120.501v-338h-79v771h77v-282c43.333 56.667 99 86.667 167 90c70.667 3.33301 131.5 -20 182.5 -70
s76.5 -111.667 76.5 -185v-324z" />
    <glyph glyph-name="i" unicode="i" horiz-adv-x="159" 
d="M75 657h-75v133h75v-133zM75 19h-75v570h75v-570z" />
    <glyph glyph-name="j" unicode="j" horiz-adv-x="227" 
d="M144 655h-79v135h79v-135zM142 5c0 -52.667 -9.33301 -89.667 -28 -111c-22 -26 -52.667 -42.667 -92 -50l-21 -4v76c24 2 41.667 12.333 53 31c7.33301 12 11 36 11 72v571h77v-585z" />
    <glyph glyph-name="k" unicode="k" horiz-adv-x="512" 
d="M457 19h-99l-185 224l-91 -115v-109h-82v771h79v-543l264 342h95l-217 -287z" />
    <glyph glyph-name="l" unicode="l" horiz-adv-x="162" 
d="M76 19h-76v771h76v-771z" />
    <glyph glyph-name="m" unicode="m" horiz-adv-x="902" 
d="M820 19h-79.001v350c0 44 -12.667 81.667 -38 113s-58.666 47 -99.999 47c-42 0 -78.167 -13.667 -108.5 -41s-45.5 -61.333 -45.5 -102v-367h-80v367c0 40.667 -15.167 74.667 -45.5 102s-66.5 41 -108.5 41c-41.333 0 -74.333 -15.5 -99 -46.5s-37 -68.833 -37 -113.5
v-350h-79v341c-0 71.333 20.333 128.666 61 171.999c38 40.667 88 63.667 150 69c82.667 6.66699 148.667 -28.666 198 -105.999c49.333 77.333 115.333 112.666 198 105.999c62 -5.33301 112.333 -28.333 151 -69c41.333 -43.333 62 -100.666 62 -171.999v-341z" />
    <glyph glyph-name="n" unicode="n" horiz-adv-x="583" 
d="M503 19h-77v333c0 48 -17.5 89.333 -52.5 124s-75.833 52 -122.5 52c-47.333 0 -88.5 -17.333 -123.5 -52s-52.5 -76 -52.5 -124v-333h-77v325c0 74 24 135.5 72 184.5s108.333 73.5 181 73.5c72 0 132 -24.5 180 -73.5s72 -110.5 72 -184.5v-325z" />
    <glyph glyph-name="o" unicode="o" horiz-adv-x="663" 
d="M586 304c0 -82 -29.832 -152.833 -89.499 -212.5s-130.5 -88.167 -212.5 -85.5c-79.333 2 -146.5 32 -201.5 90s-82.5 127 -82.5 207c0 83.333 29.667 154.833 89 214.5s130 88.167 212 85.5c79.333 -2.66699 146.666 -33.167 201.999 -91.5s83 -127.5 83 -207.5z
M510.001 310c-2 60 -23.5 111.331 -64.5 153.998s-90.5 64 -148.5 64c-60.667 0.666992 -112.334 -20.5 -155.001 -63.5s-64.334 -94.833 -65.001 -155.5c-1.33301 -60 18.334 -112.5 59.001 -157.5s90.334 -68.5 149.001 -70.5
c62.667 -3.33301 116.167 18.334 160.5 65.001s65.833 101.334 64.5 164.001z" />
    <glyph glyph-name="p" unicode="p" horiz-adv-x="661" 
d="M587 305c0 -83.333 -29.667 -154.833 -89 -214.5s-130 -88.167 -212 -85.5c-84 3.33301 -154.333 37 -211 101v-287h-74v481v1.5v2.5c0 82 29.833 152.833 89.5 212.5s130.5 88.167 212.5 85.5c79.333 -2 146.5 -32 201.5 -90s82.5 -127 82.5 -207zM511 299
c0.666992 60 -19.3311 112.501 -59.998 157.501s-90.334 68.5 -149.001 70.5c-62.667 3.33301 -116.167 -18.334 -160.5 -65.001s-65.833 -101.334 -64.5 -164.001c1.33301 -60 22.666 -111.333 63.999 -154s91.333 -64 150 -64c60 0 111.333 21.333 154 64
s64.667 94.334 66 155.001z" />
    <glyph glyph-name="q" unicode="q" horiz-adv-x="665" 
d="M586 304l-0.000976562 -4v-481h-75v287c-56.667 -64 -126.667 -97.667 -210 -101c-82.667 -2.66699 -153.667 25.833 -213 85.5s-89 131.167 -89 214.5c0 80 27.5 149 82.5 207s122.167 88 201.5 90c82.667 2.66699 154.334 -26 215.001 -86s90 -130.667 88 -212z
M508.999 298c1.33301 62.667 -20.168 117.333 -64.501 164s-97.833 68.334 -160.5 65.001c-58 -2 -107.5 -25.5 -148.5 -70.5s-60.833 -97.5 -59.5 -157.5c0.666992 -60.667 22.334 -112.334 65.001 -155.001s94.334 -64 155.001 -64c58 0 107.667 21.333 149 64
s62.666 94 63.999 154z" />
    <glyph glyph-name="r" unicode="r" horiz-adv-x="283" 
d="M224 524c-35.333 -1.33301 -64 -11.001 -86 -29.001s-37 -33.667 -45 -47c-12.667 -22 -19 -51.333 -19 -88v-341h-80v570h71v-81c16 30.667 39.667 54.334 71 71.001c28.667 15.333 58 22.333 88 21v-76z" />
    <glyph glyph-name="s" unicode="s" horiz-adv-x="435" 
d="M361 189c4 -51.333 -14.002 -95.8311 -54.002 -133.498s-86 -54.834 -138 -51.501c-48 3.33301 -88.167 22.666 -120.5 57.999s-48.5 77.333 -48.5 126h79v-19c0 -19.333 10.667 -39.333 32 -60s44 -30.667 68 -30c32 0.666992 57.333 10.334 76 29.001
c16.667 17.333 25.334 40 26.001 68c0.666992 48.667 -27 82 -83 100l-67 21c-70 22 -106.667 69.667 -110 143c-2 44 12.833 81.667 44.5 113s69.834 48 114.501 50c38.667 2 74.834 -10.5 108.501 -37.5s51.834 -60.5 54.501 -100.5l1 -17h-80v13
c0 20 -8.5 36.167 -25.5 48.5s-36.5 18.5 -58.5 18.5c-21.333 -0.666992 -39.833 -8.33398 -55.5 -23.001s-23.834 -33 -24.501 -55c-2.66699 -40.667 21.666 -69.667 72.999 -87l66 -22c76 -26 116.667 -76.667 122 -152z" />
    <glyph glyph-name="t" unicode="t" horiz-adv-x="275" 
d="M208 7c-138.667 0 -208 59 -208 177v605h77v-199h131v-71h-131v-322c0 -84.667 43.667 -127 131 -127v-63z" />
    <glyph glyph-name="u" unicode="u" horiz-adv-x="589" 
d="M504 264c0 -74 -23.8311 -135.667 -71.498 -185s-107.834 -74 -180.501 -74s-132.834 24.667 -180.501 74s-71.5 111 -71.5 185v325h77v-334c0 -48 17.5 -89.167 52.5 -123.5s75.833 -51.5 122.5 -51.5s87.5 17.167 122.5 51.5s52.5 75.5 52.5 123.5v334h77v-325z" />
    <glyph glyph-name="v" unicode="v" horiz-adv-x="615" 
d="M551 589l-238 -570h-79l-234 570h80l194 -470l193 470h84z" />
    <glyph glyph-name="w" unicode="w" horiz-adv-x="914" 
d="M847 589l-214 -570h-89l-124 377l-117 -377h-87l-216 570h81l177 -475l132 406h65l130 -403l180 472h82z" />
    <glyph glyph-name="x" unicode="x" horiz-adv-x="562" 
d="M485 19h-95l-150 228l-149 -228h-90l192 291l-194 279h87l154 -217l149 217h94l-198 -281z" />
    <glyph glyph-name="y" unicode="y" horiz-adv-x="600" 
d="M537 589l-323 -769h-82l86 217l-218 552h83l182 -452l192 452h80z" />
    <glyph glyph-name="z" unicode="z" horiz-adv-x="465" 
d="M404 19h-421v71l305 428h-294v71h387v-72l-302 -427h325v-71z" />
    <glyph glyph-name="bar" unicode="|" horiz-adv-x="139" 
d="M54 -200h-54v1000h53z" />
    <glyph glyph-name="asciitilde" unicode="~" horiz-adv-x="499" 
d="M423 443l-31 -46.002c-5.33301 -8 -15 -16.333 -29 -25c-16.667 -10 -32.667 -16.333 -48 -19c-20 -2.66699 -47.667 3.33301 -83 18l-62 26c-26 10.667 -44.667 15 -56 13c-24 -3.33301 -44 -17.666 -60 -42.999l-19 -32l-35 38l14 24
c27.333 44.667 57.666 69.667 90.999 75c20.667 3.33301 45.334 -0.666992 74.001 -12l86 -35c16.667 -6.66699 31 -9.66699 43 -9c27.333 2.66699 47 14.334 59 35.001l20 34z" />
    <glyph glyph-name="copyright" unicode="&#xa9;" horiz-adv-x="280" 
d="M203 692c0 -28 -10 -51.833 -30 -71.5s-43.667 -29.5 -71 -29.5c-28 0 -52 9.5 -72 28.5s-30 42.167 -30 69.5s9.83301 51 29.5 71s43.167 30 70.5 30c28 0 52.167 -9.5 72.5 -28.5s30.5 -42.167 30.5 -69.5zM183 691c0 22 -8.16602 40.834 -24.499 56.501
s-35.833 23.5 -58.5 23.5c-22 0 -41 -8 -57 -24s-24 -35 -24 -57s8 -40.833 24 -56.5s35.333 -23.834 58 -24.501c22.667 0 42.167 8 58.5 24s24.166 35.333 23.499 58zM158.001 665.001c-8 -28 -26.001 -41.999 -54.001 -41.999c-18.667 0 -33.167 6.16699 -43.5 18.5
s-15.5 28.166 -15.5 47.499c0 45.333 20 68 60 68c28 0 45.333 -12.667 52 -38l-25 -6c-3.33301 14.667 -12.666 22 -27.999 22c-21.333 0 -32 -14.667 -32 -44c0 -30.667 10.667 -46 32 -46c14.667 0 24 9.33301 28 28z" />
    <glyph glyph-name="hyphen" unicode="&#xad;" horiz-adv-x="4606" 
d="M4624 457c0 -45.333 -14.334 -85.8311 -43 -121.498s-62.666 -53.5 -102 -53.5c-8 0.666992 -15 2.66699 -21 6c-14 8.66699 -22 23.334 -24 44.001l-18 -21c-15.334 -17.333 -34.667 -26 -58 -26c-24 -0.666992 -43.666 8.66602 -59 27.999s-23 41.666 -23 66.999
c0 37.333 15.666 70 47 98c28.666 25.333 58 38 88 38c24.666 0 40.333 -9.33301 47 -28l6 -17l12 38l53 1l-48 -174c-6.66602 -24.667 -3.33301 -37 10 -37c24.666 0 47.666 16.5 69 49.5s32 67.5 32 103.5c0 46.667 -18.334 84 -55 112c-33.334 25.333 -74 38 -122 38
c-52 0 -96.334 -18.333 -133 -55s-55 -81 -55 -133c0 -53.333 18.666 -99.333 56 -138s82.667 -58 136 -58c26 1.33301 49.334 5 70 11c49.334 14.667 80.334 40 93 76h40c-28.666 -72.667 -96.666 -112 -204 -118c-61.334 0 -114 22 -158 66s-66 97 -66 159
c0 61.333 21.5 113.666 64.5 156.999s95.166 65 156.5 65c55.334 0 103.334 -16.333 144 -49c43.334 -34 65 -76.667 65 -128zM3957 533.002h-77v131h77v-131zM3957 132.002h-77v131h77v-131zM3666 9.00195h-77v133h77v-133zM2752 692.002c0 -28 -10 -51.833 -30 -71.5
s-43.667 -29.5 -71 -29.5c-28 0 -52 9.5 -72 28.5s-30 42.167 -30 69.5s9.83301 51 29.5 71s43.167 30 70.5 30c28 0 52.167 -9.5 72.5 -28.5s30.5 -42.167 30.5 -69.5zM3357 148.002l-86 -202h-78l88 202h76zM2505 681.002h-20v86l-22 -86h-21l-21 86v-86h-21v109h33
l20 -74l20 74h32v-109zM2387 771.002h-33v-90h-22v90h-32v19h87v-19zM2870 120.002c0 -27.333 -10 -51 -30 -71s-43.667 -30 -71 -30s-51.166 9.5 -71.5 28.5c-20.333 19 -30.5 42.167 -30.5 69.5s9.83301 51 29.5 71s43.5 30 71.5 30c27.333 0 51.166 -9.5 71.5 -28.5
c20.333 -19 30.5 -42.167 30.5 -69.5zM2242 692.002c0 -28 -9.83301 -51.833 -29.5 -71.5s-43.5 -29.5 -71.5 -29.5c-27.333 0 -51 9.5 -71 28.5s-30 42.167 -30 69.5s9.66699 51 29 71s43 30 71 30c27.333 0 51.166 -9.5 71.5 -28.5c20.333 -19 30.5 -42.167 30.5 -69.5z
M2475 19.002h-21v85l-21 -85h-22l-21 85v-85h-20v109h32l20 -75l20 75h33v-109zM2356 109.002h-32v-90h-22v90h-33v19h87v-19zM2182 120.002c0 -27.333 -9.83398 -51 -29.501 -71s-43.5 -30 -71.5 -30c-27.333 0 -51 9.5 -71 28.5s-30 42.167 -30 69.5s9.83301 51 29.5 71
s43.167 30 70.501 30c28 0 52 -9.5 72 -28.5s30 -42.167 30 -69.5zM1434 558.002c0 -58.667 -22.999 -111.003 -68.999 -157.003l-56 -58c-48 -48.667 -73.667 -100.667 -77 -156h-84l4 33c3.33301 30.667 12.666 59.667 27.999 87c14 24.667 45.667 61.667 95 111l36 36
c28 28 42.333 63.667 43 107c0.666992 44 -15.833 81.333 -49.5 112s-73.167 46.667 -118.5 48c-48 0.666992 -89 -16.166 -123 -50.499s-51 -75.5 -51 -123.5v-15h-79v18c0 68.667 25 127.334 75 176.001s109.667 73.334 179 74.001c68 0.666992 126.333 -22.5 175 -69.5
s72.667 -104.5 72 -172.5zM1231 18.999h-82v95h82v-95zM618 -200.001h-26v1000h26v-1000zM280 365.999h-280v73h280v-73zM4453 446.999c0 35.333 -12 52.999 -36 52.999c-20 0 -39.5 -16.667 -58.5 -50s-28.5 -65.666 -28.5 -96.999c0 -34 14 -51 42 -51
c20 0 39 18.333 57 55c16 33.333 24 63.333 24 90zM2733 690.998c-0.666992 22 -9.16699 40.834 -25.5 56.501s-35.833 23.5 -58.5 23.5c-22 0 -41 -8 -57 -24s-24 -35 -24 -57s8 -40.833 24 -56.5s35.333 -23.834 58 -24.501c22.667 0 42.167 8 58.5 24
s24.5 35.333 24.5 58zM2851 118.999c-0.666992 22.667 -9.16699 41.668 -25.5 57.001s-35.5 23 -57.5 23c-22.667 0 -42 -7.83301 -58 -23.5s-24 -34.834 -24 -57.501c0 -22 8 -40.833 24 -56.5s35.333 -23.5 58 -23.5c22.667 -0.666992 42.167 7 58.5 23
s24.5 35.333 24.5 58zM2223 691c0 22 -8.16699 40.834 -24.5 56.501s-35.833 23.5 -58.5 23.5c-22 0 -41 -8 -57 -24s-24 -35 -24 -57s8 -40.833 24 -56.5s35 -23.834 57 -24.501c22.667 0 42.167 8 58.5 24s24.5 35.333 24.5 58zM2163 119.001
c0 22.667 -8.16699 41.668 -24.5 57.001s-35.833 23 -58.5 23c-22 0 -41 -7.83301 -57 -23.5s-24 -34.834 -24 -57.501c0 -22 8 -40.833 24 -56.5s35 -23.5 57 -23.5c22.667 -0.666992 42.167 7 58.5 23s24.5 35.333 24.5 58zM2707 665.002c-8 -28 -26 -41.999 -54 -41.999
c-18.667 0 -33.167 6.16699 -43.5 18.5s-15.5 28.166 -15.5 47.499c0 45.333 20.333 68 61 68c27.333 0 44.666 -12.667 52 -38l-26 -6c-3.33301 14.667 -12.666 22 -28 22c-21.333 0 -32 -14.667 -32 -44c0 -30.667 10.667 -46 32 -46c14.667 0 24 9.33301 28 28z
M2825 93.0029c-7.33301 -28 -25.333 -42.001 -54 -42.001c-18.667 0 -33.167 6.33301 -43.5 19s-15.5 28.334 -15.5 47.001c0 46 20.333 69 61 69c27.333 0 44.666 -12.667 52 -38l-26 -7c-3.33301 14.667 -12.666 22 -28 22c-21.333 0 -32 -14.667 -32 -44
c0 -30 10.667 -45 32 -45c14.667 0 24.334 9 29 27zM2190 636.002l-27 0.000976562l-15 23c-4 6 -10.333 13 -19 21c-2 0.666992 -5.66699 1 -11 1h-4v-45h-22v109h46c20 0 32.667 -4.66699 38 -14c3.33301 -4.66699 5 -10.334 5 -17.001
c0 -17.333 -9.66699 -27.333 -29 -30c8 -4.66699 16 -13.667 24 -27zM2130 64.0029l-26 0.000976562l-16 24c-4 6 -10 12.667 -18 20c-2.66699 0.666992 -6.66699 1 -12 1h-4v-45h-22v109h46c20 0 32.667 -4.66699 38 -14c3.33301 -4.66699 5 -10.334 5 -17.001
c0 -17.333 -9.66699 -27.333 -29 -30c8 -4.66699 16.333 -13.667 25 -27zM2158 713.004c0 7.33301 -3.66699 11.667 -11 13h-16h-17v-27h16c18.667 0 28 4.66699 28 14zM2098 141.005c0 7.33301 -3.66699 11.667 -11 13h-16h-17v-27h16c18.667 0 28 4.66699 28 14z" />
    <glyph glyph-name="hyphen" unicode="&#x2212;" horiz-adv-x="4606" 
d="M4624 457c0 -45.333 -14.334 -85.8311 -43 -121.498s-62.666 -53.5 -102 -53.5c-8 0.666992 -15 2.66699 -21 6c-14 8.66699 -22 23.334 -24 44.001l-18 -21c-15.334 -17.333 -34.667 -26 -58 -26c-24 -0.666992 -43.666 8.66602 -59 27.999s-23 41.666 -23 66.999
c0 37.333 15.666 70 47 98c28.666 25.333 58 38 88 38c24.666 0 40.333 -9.33301 47 -28l6 -17l12 38l53 1l-48 -174c-6.66602 -24.667 -3.33301 -37 10 -37c24.666 0 47.666 16.5 69 49.5s32 67.5 32 103.5c0 46.667 -18.334 84 -55 112c-33.334 25.333 -74 38 -122 38
c-52 0 -96.334 -18.333 -133 -55s-55 -81 -55 -133c0 -53.333 18.666 -99.333 56 -138s82.667 -58 136 -58c26 1.33301 49.334 5 70 11c49.334 14.667 80.334 40 93 76h40c-28.666 -72.667 -96.666 -112 -204 -118c-61.334 0 -114 22 -158 66s-66 97 -66 159
c0 61.333 21.5 113.666 64.5 156.999s95.166 65 156.5 65c55.334 0 103.334 -16.333 144 -49c43.334 -34 65 -76.667 65 -128zM3957 533.002h-77v131h77v-131zM3957 132.002h-77v131h77v-131zM3666 9.00195h-77v133h77v-133zM2752 692.002c0 -28 -10 -51.833 -30 -71.5
s-43.667 -29.5 -71 -29.5c-28 0 -52 9.5 -72 28.5s-30 42.167 -30 69.5s9.83301 51 29.5 71s43.167 30 70.5 30c28 0 52.167 -9.5 72.5 -28.5s30.5 -42.167 30.5 -69.5zM3357 148.002l-86 -202h-78l88 202h76zM2505 681.002h-20v86l-22 -86h-21l-21 86v-86h-21v109h33
l20 -74l20 74h32v-109zM2387 771.002h-33v-90h-22v90h-32v19h87v-19zM2870 120.002c0 -27.333 -10 -51 -30 -71s-43.667 -30 -71 -30s-51.166 9.5 -71.5 28.5c-20.333 19 -30.5 42.167 -30.5 69.5s9.83301 51 29.5 71s43.5 30 71.5 30c27.333 0 51.166 -9.5 71.5 -28.5
c20.333 -19 30.5 -42.167 30.5 -69.5zM2242 692.002c0 -28 -9.83301 -51.833 -29.5 -71.5s-43.5 -29.5 -71.5 -29.5c-27.333 0 -51 9.5 -71 28.5s-30 42.167 -30 69.5s9.66699 51 29 71s43 30 71 30c27.333 0 51.166 -9.5 71.5 -28.5c20.333 -19 30.5 -42.167 30.5 -69.5z
M2475 19.002h-21v85l-21 -85h-22l-21 85v-85h-20v109h32l20 -75l20 75h33v-109zM2356 109.002h-32v-90h-22v90h-33v19h87v-19zM2182 120.002c0 -27.333 -9.83398 -51 -29.501 -71s-43.5 -30 -71.5 -30c-27.333 0 -51 9.5 -71 28.5s-30 42.167 -30 69.5s9.83301 51 29.5 71
s43.167 30 70.501 30c28 0 52 -9.5 72 -28.5s30 -42.167 30 -69.5zM1434 558.002c0 -58.667 -22.999 -111.003 -68.999 -157.003l-56 -58c-48 -48.667 -73.667 -100.667 -77 -156h-84l4 33c3.33301 30.667 12.666 59.667 27.999 87c14 24.667 45.667 61.667 95 111l36 36
c28 28 42.333 63.667 43 107c0.666992 44 -15.833 81.333 -49.5 112s-73.167 46.667 -118.5 48c-48 0.666992 -89 -16.166 -123 -50.499s-51 -75.5 -51 -123.5v-15h-79v18c0 68.667 25 127.334 75 176.001s109.667 73.334 179 74.001c68 0.666992 126.333 -22.5 175 -69.5
s72.667 -104.5 72 -172.5zM1231 18.999h-82v95h82v-95zM618 -200.001h-26v1000h26v-1000zM280 365.999h-280v73h280v-73zM4453 446.999c0 35.333 -12 52.999 -36 52.999c-20 0 -39.5 -16.667 -58.5 -50s-28.5 -65.666 -28.5 -96.999c0 -34 14 -51 42 -51
c20 0 39 18.333 57 55c16 33.333 24 63.333 24 90zM2733 690.998c-0.666992 22 -9.16699 40.834 -25.5 56.501s-35.833 23.5 -58.5 23.5c-22 0 -41 -8 -57 -24s-24 -35 -24 -57s8 -40.833 24 -56.5s35.333 -23.834 58 -24.501c22.667 0 42.167 8 58.5 24
s24.5 35.333 24.5 58zM2851 118.999c-0.666992 22.667 -9.16699 41.668 -25.5 57.001s-35.5 23 -57.5 23c-22.667 0 -42 -7.83301 -58 -23.5s-24 -34.834 -24 -57.501c0 -22 8 -40.833 24 -56.5s35.333 -23.5 58 -23.5c22.667 -0.666992 42.167 7 58.5 23
s24.5 35.333 24.5 58zM2223 691c0 22 -8.16699 40.834 -24.5 56.501s-35.833 23.5 -58.5 23.5c-22 0 -41 -8 -57 -24s-24 -35 -24 -57s8 -40.833 24 -56.5s35 -23.834 57 -24.501c22.667 0 42.167 8 58.5 24s24.5 35.333 24.5 58zM2163 119.001
c0 22.667 -8.16699 41.668 -24.5 57.001s-35.833 23 -58.5 23c-22 0 -41 -7.83301 -57 -23.5s-24 -34.834 -24 -57.501c0 -22 8 -40.833 24 -56.5s35 -23.5 57 -23.5c22.667 -0.666992 42.167 7 58.5 23s24.5 35.333 24.5 58zM2707 665.002c-8 -28 -26 -41.999 -54 -41.999
c-18.667 0 -33.167 6.16699 -43.5 18.5s-15.5 28.166 -15.5 47.499c0 45.333 20.333 68 61 68c27.333 0 44.666 -12.667 52 -38l-26 -6c-3.33301 14.667 -12.666 22 -28 22c-21.333 0 -32 -14.667 -32 -44c0 -30.667 10.667 -46 32 -46c14.667 0 24 9.33301 28 28z
M2825 93.0029c-7.33301 -28 -25.333 -42.001 -54 -42.001c-18.667 0 -33.167 6.33301 -43.5 19s-15.5 28.334 -15.5 47.001c0 46 20.333 69 61 69c27.333 0 44.666 -12.667 52 -38l-26 -7c-3.33301 14.667 -12.666 22 -28 22c-21.333 0 -32 -14.667 -32 -44
c0 -30 10.667 -45 32 -45c14.667 0 24.334 9 29 27zM2190 636.002l-27 0.000976562l-15 23c-4 6 -10.333 13 -19 21c-2 0.666992 -5.66699 1 -11 1h-4v-45h-22v109h46c20 0 32.667 -4.66699 38 -14c3.33301 -4.66699 5 -10.334 5 -17.001
c0 -17.333 -9.66699 -27.333 -29 -30c8 -4.66699 16 -13.667 24 -27zM2130 64.0029l-26 0.000976562l-16 24c-4 6 -10 12.667 -18 20c-2.66699 0.666992 -6.66699 1 -12 1h-4v-45h-22v109h46c20 0 32.667 -4.66699 38 -14c3.33301 -4.66699 5 -10.334 5 -17.001
c0 -17.333 -9.66699 -27.333 -29 -30c8 -4.66699 16.333 -13.667 25 -27zM2158 713.004c0 7.33301 -3.66699 11.667 -11 13h-16h-17v-27h16c18.667 0 28 4.66699 28 14zM2098 141.005c0 7.33301 -3.66699 11.667 -11 13h-16h-17v-27h16c18.667 0 28 4.66699 28 14z" />
    <glyph glyph-name="registered" unicode="&#xae;" horiz-adv-x="280" 
d="M203 692c0 -28 -10 -51.833 -30 -71.5s-43.667 -29.5 -71 -29.5c-28 0 -52 9.5 -72 28.5s-30 42.167 -30 69.5s9.83301 51 29.5 71s43.167 30 70.5 30c28 0 52.167 -9.5 72.5 -28.5s30.5 -42.167 30.5 -69.5zM183 691c0 22 -8.16602 40.834 -24.499 56.501
s-35.833 23.5 -58.5 23.5c-22 0 -41 -8 -57 -24s-24 -35 -24 -57s8 -40.833 24 -56.5s35.333 -23.834 58 -24.501c22.667 0 42.167 8 58.5 24s24.166 35.333 23.499 58zM150.001 636.001l-25.999 0.000976562l-16 23c-3.33301 6 -9.33301 13 -18 21
c-2.66699 0.666992 -6.33398 1 -11.001 1h-5v-45h-22v109h47c19.333 0 32 -4.66699 38 -14c2.66699 -4.66699 4 -10.334 4 -17.001c0 -17.333 -9.33301 -27.333 -28 -30c7.33301 -4.66699 15.333 -13.667 24 -27zM119.002 713.002c0 7.33301 -4 11.667 -12 13h-16h-17v-27
h17c18.667 0 28 4.66699 28 14z" />
    <glyph glyph-name="twosuperior" unicode="&#xb2;" horiz-adv-x="292" 
 />
    <glyph glyph-name="udieresis" unicode="&#xfc;" horiz-adv-x="505" 
d="M423 689c0 -16 -5.5 -29.5 -16.5 -40.5s-24.5 -16.5 -40.5 -16.5c-15.333 0 -28.666 5.5 -39.999 16.5s-17 24.5 -17 40.5s5.66699 29.5 17 40.5s24.666 16.5 39.999 16.5c16 0 29.5 -5.5 40.5 -16.5s16.5 -24.5 16.5 -40.5zM195 689c0 -16 -5.66699 -29.5 -17 -40.5
s-24.666 -16.5 -39.999 -16.5c-16 0 -29.5 5.5 -40.5 16.5s-16.5 24.5 -16.5 40.5s5.5 29.5 16.5 40.5s24.5 16.5 40.5 16.5c15.333 0 28.666 -5.5 39.999 -16.5s17 -24.5 17 -40.5z" />
    <glyph glyph-name="dagger" unicode="&#x2020;" horiz-adv-x="764" 
d="M597 661l-44 -8l-5 -56l-9 8l4 47l-12 -2l-19 -24l-8 7l51 63l8 -7l-25 -30h1c4 1.33301 7.33301 2 10 2l38 8zM667 565l-71 -38l-5 10l71 38zM636 616l-47 -71l-7 9l15 22l-18 23l-25 -9l-7 8l81 28zM523 712l-22 -43l10 -5l-4 -7l-9 4l-10 -19l-9 5l10 19l-33 16l4 6
l53 29zM456 697l-3 -7l-28 9l2 7zM414 734c0 -2.66699 -2.66699 -5.33105 -8 -7.99805s-8.33301 -5.33398 -9 -8.00098c11.333 -4 16.333 -11.333 15 -22c-2 -15.333 -12.333 -22 -31 -20c-8 1.33301 -14.667 4 -20 8l4 8c5.33301 -4 11 -6.33301 17 -7
c11.333 -2 17.666 2 18.999 12c1.33301 10.667 -4.66699 17 -18 19h-5l1 8l5 -1c12 -1.33301 18.333 2.33398 19 11.001c1.33301 8 -2.66699 12.333 -12 13c-5.33301 1.33301 -10.666 0.666016 -15.999 -2.00098l-1 7c6 3.33301 13 4.66602 21 3.99902
c14.667 -2 21 -9.33301 19 -22zM352 727.003c2 -28 -8.66602 -44.3311 -31.999 -48.998c-4 -1.33301 -7.33301 -2 -10 -2l-1 9c20.667 -0.666992 31.667 9.66602 33 30.999v0c-4 -6 -10 -9.33301 -18 -10c-15.333 -0.666992 -23.333 6.66602 -24 21.999
c-1.33301 18.667 6.66699 28.667 24 30s26.666 -9 27.999 -31zM297.001 676.005l-47.999 -13.999l-2 7l6 10c13.333 23.333 19 39 17 47c-2.66699 9.33301 -9 12.666 -19 9.99902c-6 -1.33301 -10.667 -5 -14 -11l-6 7c6.66699 9.33301 15.667 14 27 14
s18.333 -5.33301 21 -16c3.33301 -10.667 -1.33398 -26.667 -14.001 -48l-4 -7v0l33 9zM704.002 312.006l-4 -9.00098l-39 15c-4.66699 2 -9.33398 2.33301 -14.001 1c-11.333 -3.33301 -14.666 -11 -9.99902 -23c2 -4.66699 5.33301 -7.66699 10 -9l41 -16l-4 -9l-41 16
c-10.667 4 -18 0.333008 -22 -11c-4 -10.667 0 -18.334 12 -23.001l39 -15l-4 -8l-38 14c-16.667 6.66699 -22.667 18 -18 34c3.33301 9.33301 10.333 15.333 21 18c-6.66699 8.66699 -8 17.334 -4 26.001c3.33301 6.66699 8.33301 11.334 15 14.001s14 2.66699 22 0z
M231.002 685.005l-26 -12l-4 7l27 12zM197.002 635.005l-8 -6l-39 56v0l-7 -14l-6 6l8 17l8 5zM639.002 197.005c1.33301 -9.33301 -1 -17.833 -7 -25.5s-14 -11.834 -24 -12.501c-23.333 -2 -36.333 8.66699 -39 32c-1.33301 9.33301 1 17.833 7 25.5s14 11.834 24 12.501
c23.333 2 36.333 -8.66699 39 -32zM455.002 403.005c0 -29.333 -10.333 -54.333 -31 -75s-45.334 -31 -74.001 -31c-29.333 0 -54.333 10.333 -75 31s-31 45.667 -31 75s10.333 54.333 31 75s45.667 31 75 31c28.667 0 53.334 -10.333 74.001 -31s31 -45.667 31 -75z
M598.002 407.005c0 -68.667 -24.332 -127.5 -72.999 -176.5s-107.334 -73.5 -176.001 -73.5c-68 0 -126.833 23.667 -176.5 71s-74.5 104.333 -74.5 171c0 66 23.333 123.333 70 172v-169c0 -50 17.667 -92.667 53 -128s78 -53 128 -53s92.667 17.667 128 53s53 78 53 128
s-17.667 92.667 -53 128s-78 53 -128 53c-38.667 0 -73.667 -11.333 -105 -34v77c32.667 14.667 66.667 22 102 22c68 0 127 -23.333 177 -70s75 -103.667 75 -171zM153.003 609.005c0 -16.667 -8.66602 -27.333 -25.999 -32l-4 8c5.33301 1.33301 10.333 4.33301 15 9
c8.66699 8.66699 8.66699 17 0 25c-8 8 -17 6.33301 -27 -5c-2.66699 -2 -5 -4.66699 -7 -8l-24 30l26 26l6 -6l-20 -21l12 -16c5.33301 7.33301 11.666 12 18.999 14c8 2.66699 15 1.16699 21 -4.5s9 -12.167 9 -19.5zM584.004 147.006
c2.66699 -12 -0.498047 -22.501 -9.49805 -31.501s-19.5 -12.833 -31.5 -11.5c-10 0.666992 -18 5 -24 13s-8.33301 17 -7 27c2.66699 19.333 13.667 30 33 32c7.33301 0.666992 13.666 -0.666016 18.999 -3.99902l2 -1l-8 -6c-8 3.33301 -15.833 2.83301 -23.5 -1.5
s-12.167 -10.833 -13.5 -19.5c-2.66699 -18.667 5 -29 23 -31c8.66699 -1.33301 16.167 1.16699 22.5 7.5s9.16602 13.833 8.49902 22.5l8 6zM111.006 565.005c2.66699 -11.333 0 -22.668 -8 -34.001l-7 5c6 8 8 16.333 6 25c-1.33301 7.33301 -5.33301 14 -12 20v0
c2.66699 -7.33301 1.66699 -14 -3 -20c-8 -13.333 -18.667 -15.666 -32 -6.99902c-8.66699 5.33301 -13 13 -13 23c0 16.667 8 25 24 25c6.66699 0 13.667 -2.33301 21 -7c13.333 -8 21.333 -18 24 -30zM526.006 89.0029c2 -4.66699 1 -8 -3 -10
c-4 -2.66699 -7.33301 -1.66699 -10 3s-1.66699 8 3 10c4 2 7.33301 1 10 -3zM497.006 69.0029l-11 -4l-30 17l-6 -16l5 -13l-9 -3l-32 87l9 3l22 -61l16 49l10 4l-12 -41zM380.006 116.003l-9 -1l-2 16l9 1zM418.006 107.003c-12 -3.33301 -16.667 -11 -14 -23l8 -40l-9 -2
l-14 67l9 1l2 -9c2 8 7.33301 12.667 16 14zM388.006 40.0029l-9 -1l-7 68l9 1zM366.006 38.0029h-12l-22 27l-11 -13v-13h-10l2 92h9l-1 -65l32 40h12l-27 -34zM302.006 95.0029l-0.999023 -1.99902l-9 2v1c1.33301 5.33301 -1.33398 8.66602 -8.00098 9.99902
c-6 1.33301 -9.66699 -1 -11 -7c-1.33301 -4.66699 0.666992 -8.66699 6 -12l7 -4c8.66699 -5.33301 12.334 -12.333 11.001 -21c-0.666992 -6 -3.83398 -10.833 -9.50098 -14.5s-11.5 -4.5 -17.5 -2.5c-12.667 3.33301 -17.667 11.666 -15 24.999l9 -2l-1 -2
c-1.33301 -7.33301 2 -11.666 10 -12.999s12.667 1.66699 14 9c1.33301 6 -1 10.667 -7 14l-7 4c-8 4.66699 -11.333 11 -10 19c2 12.667 9.66699 18 23 16c12.667 -2 18 -8.66699 16 -20zM154.007 212.004l-11 -11l-7 7l12 11zM89.0068 319.004l-60 -25l50 -14l4 -10
l-42 11l-20 -39l-5 11l17 30l-17 5l-12 -5l-4 9l85 35zM257.007 120.004l-15.001 -36.001c-5.33301 -13.333 -14.666 -20 -27.999 -20c-14 0 -23.333 6.33301 -28 19c-3.33301 8 -3.33301 16 0 24l16 36l8 -4l-15 -37c-6 -12.667 -2.33301 -21.667 11 -27
c12.667 -5.33301 21.667 -1.66602 27 11.001l16 37zM183.006 146.003c4 -23.333 -5.66699 -37 -29 -41c-10 -2 -18.833 -0.166992 -26.5 5.5s-12.167 13.5 -13.5 23.5c-2 9.33301 0.333008 18.333 7 27l34 46l7 -5l-20 -28c10 2.66699 19 1.16699 27 -4.5
s12.667 -13.5 14 -23.5zM111.006 209.003c-1.33301 -8.66699 -6.33301 -16.001 -15 -22.001l-27 -20l-6 8l9 6c-10.667 1.33301 -19 5.83301 -25 13.5s-8 16.834 -6 27.501c4.66699 22.667 18.667 32 42 28c10 -1.33301 17.667 -6 23 -14s7 -17 5 -27zM137.006 195.002
l-49 -47l-6 6l49 48zM624.006 616.002c-2.66699 -1.33301 -7.33301 -3.33301 -14 -6l-23 -8l15 -19l13 20c2 2.66699 5 7 9 13zM510.007 707.002c-2.66699 -1.33301 -6.33301 -3.66699 -11 -7l-29 -15l22 -12l12 23c2 4 4 7.66699 6 11zM342.008 728.001
c-1.33301 15.333 -7.33203 22.666 -17.999 21.999c-10 -0.666992 -14.667 -7.33398 -14 -20.001c0.666992 -11.333 6 -16.666 16 -15.999c11.333 0.666992 16.666 5.33398 15.999 14.001zM630.009 196.001c-2.66699 18 -12.667 26 -30 24
c-16.667 -1.33301 -24 -10.666 -22 -27.999s11.667 -25.333 29 -24c18 1.33301 25.667 10.666 23 27.999zM83.0088 584.001c-0.666992 1.33301 -1.66797 2.33398 -3.00098 3.00098c-13.333 8 -22.666 7.66699 -27.999 -1s-2.66602 -16.334 8.00098 -23.001
c9.33301 -6 16.666 -4.66699 21.999 4c4 6 4.33301 11.667 1 17zM102.008 212.002c3.33301 16.667 -3.66699 26.667 -21 30c-16.667 2.66699 -26.667 -4.66602 -30 -21.999c-4 -17.333 2.66699 -27.333 20 -30c18 -2.66699 28.333 4.66602 31 21.999zM175.008 144.002
c-2.66699 17.333 -12.667 24.667 -30 22s-25 -13 -23 -31c2.66699 -17.333 13 -24.333 31 -21c16.667 3.33301 24 13.333 22 30z" />
    <glyph glyph-name="trademark" unicode="&#x2122;" horiz-adv-x="296" 
d="M205 681h-20v86l-22 -86h-21l-21 86v-86h-21v109h33l20 -74l19 74h33v-109zM86 771h-32v-90h-22v90h-32v19h86v-19z" />
    <glyph glyph-name=".null" horiz-adv-x="0" 
 />
    <glyph glyph-name="nonmarkingreturn" horiz-adv-x="500" 
 />
    </font>
</defs>
</svg>
